CAM.AUDIO CHECK SAMPLE

Format : MPEG-4
Format profile : Base Media / Version 2
Codec ID : mp42
File size : 420 MiB
Duration : 1h 41mn
Overall bit rate : 580 Kbps
Encoded date : UTC 2010-11-05 12:21:16
Tagged date : UTC 2010-11-05 12:21:40
Writing application : mp4creator 1.6.1d

Video
ID : 1
Format : AVC
Format/Info : Advanced Video Codec
Format profile : Baseline@L1.3
Format settings, CABAC : No
Format settings, ReFrames : 1 frame
Codec ID : avc1
Codec ID/Info : Advanced Video Coding
Duration : 1h 41mn
Bit rate mode : Variable
Bit rate : 514 Kbps
Width : 480 pixels
Height : 272 pixels
Display aspect ratio : 16:9
Original display aspect ratio : 16:9
Frame rate mode : Constant
Frame rate : 24.000 fps
Resolution : 24 bits
Colorimetry : 4:2:0
Scan type : Progressive
Bits/(Pixel*Frame) : 0.164
Stream size : 372 MiB (89%)
Encoded date : UTC 2010-11-05 12:21:16
Tagged date : UTC 2010-11-05 12:21:37

Audio
ID : 2
Format : AAC
Format/Info : Advanced Audio Codec
Format version : Version 4
Format profile : LC
Format settings, SBR : Yes
Format settings, PS : No
Codec ID : 40
Duration : 1h 41mn
Bit rate mode : Variable
Bit rate : 66.15 Kbps
Maximum bit rate : 135 Kbps
Channel(s) : 2 channels
Channel positions : L R
Sampling rate : 48.0 KHz
Resolution : 16 bits
Stream size : 46.9 MiB (11%)
Encoded date : UTC 2010-11-05 12:21:38
Tagged date : UTC 2010-11-05 12:21:40

Successful PR pro Marni (Kristen Bell) heads home for her older brother's (Jimmy Wolk) wedding and discovers that he's marrying her high school arch nemesis (Odette Yustman), who's conveniently forgotten their problematic past. Then the bride's jet-setting aunt (Sigourney Weaver) bursts in and Marni's not-so-jet-setting mom (Jamie Lee Curtis) comes face to face with her own high school rival. The claws come out and old wounds are opened in this crazy comedy that proves that not all rivalries are forever
 
http://www.imdb.com/title/tt1414382/

screens
 
http://img248.imageshack.us/img248/6429/youagainh264vicemp4snap.jpg 
http://img30.imageshack.us/img30/6429/youagainh264vicemp4snap.jpg 
http://img443.imageshack.us/img443/6429/youagainh264vicemp4snap.jpg 
http://img189.imageshack.us/img189/6429/youagainh264vicemp4snap.jpg